<svg viewBox="0 0 17 17" xmlns="http://www.w3.org/2000/svg">
<path d="M3.48386 3.74931H13.4839C13.6005 3.74931 13.7172 3.75664 13.8332 3.77131C13.7939 3.49566 13.6991 3.23084 13.5547 2.99278C13.4103 2.75473 13.2192 2.54838 12.9929 2.38617C12.7666 2.22396 12.5097 2.10925 12.2379 2.04895C11.9661 1.98865 11.6849 1.98401 11.4112 2.03531L3.1872 3.43931H3.17786C2.66167 3.53809 2.20264 3.8302 1.89453 4.25597C2.35867 3.9258 2.91427 3.74868 3.48386 3.74931Z" />
<path d="M13.4844 4.5H3.48438C2.9541 4.50053 2.4457 4.71141 2.07075 5.08637C1.69579 5.46133 1.4849 5.96973 1.48438 6.5V12.5C1.4849 13.0303 1.69579 13.5387 2.07075 13.9136C2.4457 14.2886 2.9541 14.4995 3.48438 14.5H13.4844C14.0146 14.4995 14.523 14.2886 14.898 13.9136C15.273 13.5387 15.4838 13.0303 15.4844 12.5V6.5C15.4837 5.96978 15.2727 5.46149 14.8978 5.08657C14.5229 4.71165 14.0146 4.50071 13.4844 4.5ZM11.9997 10.5C11.7345 10.5 11.4801 10.3946 11.2926 10.2071C11.1051 10.0196 10.9997 9.76522 10.9997 9.5C10.9997 9.23478 11.1051 8.98043 11.2926 8.79289C11.4801 8.60536 11.7345 8.5 11.9997 8.5C12.2649 8.5 12.5193 8.60536 12.7068 8.79289C12.8944 8.98043 12.9997 9.23478 12.9997 9.5C12.9997 9.76522 12.8944 10.0196 12.7068 10.2071C12.5193 10.3946 12.2649 10.5 11.9997 10.5Z" />
<path d="M1.5 8.60904V5.49971C1.5 4.82237 1.87533 3.68704 3.17667 3.44104C4.28133 3.23437 5.37533 3.23438 5.37533 3.23438C5.37533 3.23438 6.094 3.73437 5.5 3.73437C4.90667 3.73437 4.922 4.49971 5.5 4.49971C6.078 4.49971 5.5 5.23437 5.5 5.23437L3.172 7.87437L1.5 8.60971V8.60904Z" />
</svg>
