<svg viewBox="0 0 16 16" xmlns="http://www.w3.org/2000/svg">
<path d="M7.87891 5.46598L10.1693 7.75637L10.1802 7.6364C10.1802 6.43303 9.20225 5.45508 7.99888 5.45508L7.87891 5.46598Z" />
<path d="M7.99904 4.00086C10.0059 4.00086 11.6346 5.6296 11.6346 7.63641C11.6346 8.1054 11.5401 8.55257 11.3765 8.96337L13.5033 11.0902C14.6012 10.174 15.4665 8.98883 16.0009 7.63641C14.7394 4.44442 11.6382 2.18311 7.99907 2.18311C6.98111 2.18311 6.00681 2.36487 5.10156 2.69207L6.67211 4.25897C7.08288 4.09902 7.53006 4.00086 7.99904 4.00086Z" />
<path d="M0.727096 2.01935L2.3849 3.67715L2.71575 4.008C1.51602 4.94597 0.567144 6.19297 0 7.63625C1.25791 10.8282 4.36265 13.0896 7.99819 13.0896C9.12522 13.0896 10.2013 12.8714 11.1866 12.4751L11.4956 12.7842L13.6151 14.9073L14.5422 13.9839L1.65416 1.09229L0.727096 2.01935ZM4.74802 6.03663L5.8714 7.16001C5.83868 7.31635 5.81687 7.47265 5.81687 7.63625C5.81687 8.83963 6.79482 9.81758 7.99819 9.81758C8.16179 9.81758 8.31813 9.79576 8.47083 9.76304L9.59421 10.8864C9.11067 11.1264 8.57263 11.2718 7.99819 11.2718C5.99138 11.2718 4.36265 9.64307 4.36265 7.63625C4.36265 7.06185 4.50808 6.52378 4.74802 6.03663Z" />

</svg>
