<svg viewBox="0 0 28 28" xmlns="http://www.w3.org/2000/svg">
<path d="M15.9064 15.9047L25.7821 15.906C26.2434 15.8962 26.6825 15.7062 27.0055 15.3767C27.3285 15.0472 27.5096 14.6044 27.5102 14.143C27.5108 13.6816 27.3307 13.2383 27.0086 12.908C26.6864 12.5777 26.2478 12.3866 25.7865 12.3757L15.9107 12.3744L15.9106 2.4997C15.9105 2.26754 15.8647 2.03766 15.7758 1.82319C15.6868 1.60872 15.5565 1.41386 15.3923 1.24974C15.2281 1.08563 15.0332 0.955459 14.8186 0.866675C14.6041 0.777892 14.3742 0.732231 14.142 0.732299C13.6732 0.732437 13.2235 0.918831 12.8921 1.25048C12.5607 1.58213 12.3745 2.03186 12.3747 2.50074L12.3749 12.3754L2.50024 12.3752C2.26815 12.3752 2.03833 12.4209 1.8239 12.5097C1.60947 12.5985 1.41464 12.7287 1.25053 12.8928C1.08642 13.0569 0.956238 13.2518 0.867425 13.4662C0.778609 13.6806 0.732901 13.9104 0.732906 14.1425C0.73291 14.3746 0.778628 14.6045 0.867452 14.8189C0.956274 15.0333 1.08646 15.2282 1.25058 15.3923C1.4147 15.5564 1.60953 15.6866 1.82396 15.7754C2.03839 15.8642 2.26822 15.9099 2.50031 15.9099L12.3761 15.909L12.3763 25.7837C12.3763 26.0158 12.422 26.2456 12.5108 26.46C12.5996 26.6745 12.7298 26.8693 12.8939 27.0334C13.0581 27.1975 13.2529 27.3277 13.4673 27.4165C13.6818 27.5054 13.9116 27.5511 14.1437 27.5511C14.3758 27.5511 14.6056 27.5054 14.82 27.4166C15.0344 27.3278 15.2293 27.1976 15.3934 27.0335C15.5575 26.8694 15.6877 26.6745 15.7765 26.4601C15.8653 26.2457 15.911 26.0159 15.911 25.7838L15.9064 15.9047Z" />
</svg>
