<svg viewBox="0 0 18 18" xmlns="http://www.w3.org/2000/svg">
<path d="M17.8657 8.38575C17.2072 6.94575 14.6249 2.25 8.9999 2.25C3.3749 2.25 0.792653 6.94575 0.134153 8.38575C0.0457571 8.57873 0 8.78849 0 9.00075C0 9.21301 0.0457571 9.42277 0.134153 9.61575C0.792653 11.0542 3.3749 15.75 8.9999 15.75C14.6249 15.75 17.2072 11.0542 17.8657 9.61425C17.9539 9.42149 17.9995 9.21199 17.9995 9C17.9995 8.78801 17.9539 8.57851 17.8657 8.38575ZM8.9999 13.5C8.10989 13.5 7.23986 13.2361 6.49984 12.7416C5.75982 12.2471 5.18304 11.5443 4.84245 10.7221C4.50185 9.89981 4.41274 8.99501 4.58637 8.12209C4.76 7.24918 5.18859 6.44736 5.81792 5.81802C6.44726 5.18868 7.24908 4.7601 8.122 4.58647C8.99491 4.41283 9.89971 4.50195 10.722 4.84254C11.5442 5.18314 12.247 5.75991 12.7415 6.49993C13.236 7.23995 13.4999 8.10998 13.4999 9C13.4987 10.1931 13.0242 11.337 12.1806 12.1807C11.3369 13.0243 10.193 13.4988 8.9999 13.5Z" />
<path d="M9 12C10.6569 12 12 10.6569 12 9C12 7.34315 10.6569 6 9 6C7.34315 6 6 7.34315 6 9C6 10.6569 7.34315 12 9 12Z" />
</svg>
