<svg viewBox="0 0 28 28" xmlns="http://www.w3.org/2000/svg">
<path d="M11.303 14.0059L21.7777 3.53073C22.0662 3.24299 22.2248 2.85828 22.2248 2.44807C22.2248 2.03763 22.0662 1.65314 21.7777 1.36494L20.8599 0.447545C20.5719 0.158894 20.187 0 19.7768 0C19.3666 0 18.9821 0.158894 18.6939 0.447545L6.22203 12.9192C5.9327 13.2083 5.77426 13.5946 5.7754 14.0052C5.77426 14.4177 5.93247 14.8036 6.22203 15.0929L18.6823 27.5525C18.9705 27.8411 19.3549 28 19.7654 28C20.1756 28 20.5601 27.8411 20.8485 27.5525L21.7661 26.6351C22.3632 26.038 22.3632 25.0659 21.7661 24.469L11.303 14.0059Z" />
</svg>
