<svg viewBox="0 0 16 16" xmlns="http://www.w3.org/2000/svg">
<path d="M15.7318 7.40221L8.53194 1.00233C8.38543 0.871878 8.19611 0.799805 7.99995 0.799805C7.80378 0.799805 7.61446 0.871878 7.46796 1.00233L0.268089 7.40221C0.189612 7.47207 0.125664 7.55671 0.0798966 7.65128C0.0341288 7.74586 0.00743721 7.84852 0.0013458 7.95341C-0.00474562 8.05831 0.00988245 8.16337 0.0443948 8.26261C0.0789072 8.36184 0.132628 8.45331 0.20249 8.53179C0.272352 8.61027 0.356987 8.67421 0.451563 8.71998C0.546138 8.76575 0.648803 8.79244 0.753694 8.79853C0.858585 8.80462 0.963648 8.79 1.06289 8.75548C1.16212 8.72097 1.25359 8.66725 1.33207 8.59739L1.60006 8.35739V14.3997C1.60006 14.6119 1.68435 14.8153 1.83437 14.9654C1.9844 15.1154 2.18788 15.1997 2.40005 15.1997H5.59999C5.81216 15.1997 6.01564 15.1154 6.16567 14.9654C6.31569 14.8153 6.39998 14.6119 6.39998 14.3997V11.9997C6.39998 11.7876 6.48426 11.5841 6.63429 11.4341C6.78431 11.284 6.98779 11.1997 7.19996 11.1997H8.79993C9.0121 11.1997 9.21558 11.284 9.36561 11.4341C9.51563 11.5841 9.59992 11.7876 9.59992 11.9997V14.3997C9.59992 14.6119 9.6842 14.8153 9.83423 14.9654C9.98425 15.1154 10.1877 15.1997 10.3999 15.1997H13.5998C13.812 15.1997 14.0155 15.1154 14.1655 14.9654C14.3155 14.8153 14.3998 14.6119 14.3998 14.3997V8.35899L14.6678 8.59899C14.7463 8.66885 14.8378 8.72257 14.937 8.75708C15.0362 8.7916 15.1413 8.80622 15.2462 8.80013C15.3511 8.79404 15.4538 8.76735 15.5483 8.72158C15.6429 8.67581 15.7275 8.61187 15.7974 8.53339C15.8673 8.45491 15.921 8.36344 15.9555 8.26421C15.99 8.16497 16.0046 8.05991 15.9985 7.95501C15.9925 7.85012 15.9658 7.74746 15.92 7.65288C15.8742 7.55831 15.8103 7.47367 15.7318 7.40381V7.40221Z" />
</svg>
