<svg viewBox="0 0 12 12" xmlns="http://www.w3.org/2000/svg">
<path d="M2.62109 6.49067V10.6003C2.62109 10.8452 2.81906 11.0431 3.06391 11.0431C3.30835 11.0431 3.50673 10.8452 3.50673 10.6003V6.49067C3.50673 6.24615 3.30835 6.04785 3.06391 6.04785C2.81906 6.04785 2.62109 6.24594 2.62109 6.49067Z" />
<path d="M1.22996 11.0478H2.20499V6.1686C2.20766 6.14522 2.21192 6.12188 2.21192 6.09791C2.21192 3.99292 3.91096 2.28061 5.99908 2.28061C8.08695 2.28061 9.78599 3.99292 9.78599 6.09791C9.78599 6.1301 9.79071 6.1613 9.79551 6.1924V11.0478H10.7707C11.4494 11.0478 12 10.4782 12 9.7755V7.23108C12 6.65159 11.6247 6.16338 11.1123 6.00976C11.0651 3.21334 8.79032 0.952148 5.99929 0.952148C3.2075 0.952148 0.932363 3.21355 0.88568 6.01085C0.373964 6.16468 0 6.65247 0 7.23149V9.7755C0 10.4778 0.550632 11.0478 1.22996 11.0478Z" />
<path d="M8.49609 6.49067V10.6003C8.49609 10.8452 8.69435 11.0431 8.93887 11.0431C9.18339 11.0431 9.38165 10.8452 9.38165 10.6003V6.49067C9.38165 6.24615 9.18339 6.04785 8.93887 6.04785C8.69389 6.04785 8.49609 6.24594 8.49609 6.49067Z" />
</svg>
