<svg viewBox="0 0 16 16" xmlns="http://www.w3.org/2000/svg">
<path d="M14.6497 3.42348L12.5767 1.35043C12.418 1.19178 12.1608 1.19178 12.0019 1.35043L7.9997 5.3531L3.99724 1.35065C3.83859 1.19199 3.58136 1.19199 3.4225 1.35065L1.34946 3.42369C1.19081 3.58234 1.19081 3.83957 1.34946 3.99843L5.35213 8.00068L1.34967 12.0031C1.19102 12.1618 1.19102 12.419 1.34967 12.5779L3.42271 14.6509C3.58136 14.8096 3.83859 14.8096 3.99745 14.6509L7.9997 10.6482L12.0022 14.6507C12.1608 14.8094 12.418 14.8094 12.5769 14.6507L14.6499 12.5777C14.8086 12.419 14.8086 12.1618 14.6499 12.0029L10.6473 8.00068L14.6497 3.99822C14.8086 3.83978 14.8086 3.58234 14.6497 3.42348Z" />
</svg>
