<svg viewBox="0 0 22 22" xmlns="http://www.w3.org/2000/svg">
<path d="M20.2593 9.6813L2.52332 1.02958C2.37079 0.955178 2.20329 0.916504 2.03357 0.916504C1.41664 0.916504 0.916504 1.41664 0.916504 2.03357V2.06581C0.916504 2.2157 0.934883 2.36504 0.971238 2.51046L2.67254 9.31565C2.71901 9.50155 2.87617 9.63886 3.06658 9.66004L10.5443 10.4909C10.8037 10.5197 10.9998 10.7389 10.9998 10.9998C10.9998 11.2608 10.8037 11.48 10.5443 11.5088L3.06658 12.3396C2.87617 12.3608 2.71901 12.4981 2.67254 12.684L0.971238 19.4892C0.934883 19.6347 0.916504 19.784 0.916504 19.9339V19.9661C0.916504 20.583 1.41664 21.0832 2.03357 21.0832C2.20329 21.0832 2.37079 21.0445 2.52332 20.9701L20.2593 12.3184C20.7633 12.0725 21.0832 11.5607 21.0832 10.9998C21.0832 10.4389 20.7633 9.92715 20.2593 9.6813Z" />
</svg>
