<svg viewBox="0 0 12 13" xmlns="http://www.w3.org/2000/svg">
<path d="M10.1945 2.14902C10.0707 1.8123 9.84671 1.52158 9.55271 1.31598C9.2587 1.11038 8.90877 0.999764 8.55 0.999024H3.45C3.09457 0.998747 2.74751 1.10692 2.45518 1.30911C2.16285 1.51129 1.93916 1.79785 1.814 2.13052L0.734502 4.84902C0.247827 6.18402 -0.000777751 7.59408 1.82778e-06 9.01502C1.82778e-06 9.83461 0.664411 10.499 1.484 10.499H1.5V10.999C1.5 11.5513 1.94772 11.999 2.5 11.999C3.05229 11.999 3.5 11.5513 3.5 10.999V10.499H8.5V10.999C8.5 11.5513 8.94772 11.999 9.5 11.999C10.0523 11.999 10.5 11.5513 10.5 10.999V10.499H10.516C11.3356 10.499 12 9.83461 12 9.01502C12.0003 7.58647 11.7491 6.16901 11.258 4.82752L10.1945 2.14902ZM8.5 8.24902C8.5 8.05011 8.57902 7.85935 8.71967 7.71869C8.86033 7.57804 9.05109 7.49902 9.25 7.49902C9.44892 7.49902 9.63968 7.57804 9.78033 7.71869C9.92099 7.85935 10 8.05011 10 8.24902C10 8.44794 9.92099 8.6387 9.78033 8.77935C9.63968 8.92001 9.44892 8.99902 9.25 8.99902C9.05109 8.99902 8.86033 8.92001 8.71967 8.77935C8.57902 8.6387 8.5 8.44794 8.5 8.24902ZM2.1355 5.38152L3.216 2.66352C3.23349 2.61546 3.26531 2.57392 3.30715 2.5445C3.349 2.51509 3.39885 2.49921 3.45 2.49902H8.55C8.60476 2.50039 8.65768 2.51901 8.70123 2.55223C8.74478 2.58545 8.77672 2.63158 8.7925 2.68402L9.8565 5.36102C9.97129 5.67688 9.7259 5.99902 9.38983 5.99902H2.58712C2.26326 5.99902 2.02525 5.68604 2.1355 5.38152ZM2.75 8.99902C2.55109 8.99902 2.36032 8.92001 2.21967 8.77935C2.07902 8.6387 2 8.44794 2 8.24902C2 8.05011 2.07902 7.85935 2.21967 7.71869C2.36032 7.57804 2.55109 7.49902 2.75 7.49902C2.94891 7.49902 3.13968 7.57804 3.28033 7.71869C3.42098 7.85935 3.5 8.05011 3.5 8.24902C3.5 8.44794 3.42098 8.6387 3.28033 8.77935C3.13968 8.92001 2.94891 8.99902 2.75 8.99902Z" />
</svg>
