<svg viewBox="0 0 22 22" xmlns="http://www.w3.org/2000/svg">
<path d="M3.05555 6.57912C3.05555 11.6355 9.76091 18.3332 14.8114 18.3332C15.9169 18.3332 16.9495 17.9163 17.7107 17.1552L18.3726 16.3941C19.1405 15.6263 19.1405 14.3292 18.3395 13.5283C18.3197 13.5085 16.7244 12.2841 16.7244 12.2841C15.9301 11.5296 14.6791 11.5296 13.8914 12.2841L12.9249 13.0584C10.8068 12.1583 9.30418 10.6494 8.33776 8.45872L9.1056 7.49245C9.86682 6.70487 9.86682 5.44739 9.1056 4.65981C9.1056 4.65981 7.88103 3.0648 7.86117 3.04495C7.06024 2.24413 5.76285 2.24413 4.96191 3.04495L4.26689 3.64721C3.47257 4.43479 3.05555 5.46725 3.05555 6.5725V6.57912Z" />
</svg>
