<svg viewBox="0 0 16 17" xmlns="http://www.w3.org/2000/svg">
<path d="M12.6347 15.8331H12.6127C12.272 15.8278 11.948 15.6831 11.7167 15.4331L10.438 14.1791C10.182 13.9145 10.188 13.4925 10.4527 13.2365C10.4533 13.2358 10.454 13.2351 10.4547 13.2345C10.7193 12.9805 11.1393 12.9878 11.3947 13.2505L12.6353 14.4658L14.8627 12.2385C15.1227 11.9785 15.5453 11.9785 15.8053 12.2385C16.0653 12.4985 16.0653 12.9211 15.8053 13.1811L13.5247 15.4618C13.29 15.6998 12.9693 15.8338 12.6347 15.8331Z" />
<path d="M9.35698 13.8435C9.35432 11.6455 11.1337 9.86152 13.331 9.85818C14.1863 9.85685 15.0197 10.1315 15.7063 10.6415C16.8883 6.38485 14.3956 1.97619 10.1397 0.794185C5.88365 -0.387815 1.47565 2.10419 0.29365 6.36085C-0.88835 10.6175 1.60432 15.0269 5.86032 16.2089C7.26032 16.5975 8.73965 16.5975 10.1397 16.2089C9.63165 15.5249 9.35698 14.6955 9.35698 13.8435ZM8.66698 8.51485C8.66698 8.69219 8.59632 8.86152 8.47098 8.98685L6.46765 10.9909C6.20232 11.2469 5.77965 11.2395 5.52365 10.9742C5.27365 10.7155 5.27365 10.3049 5.52365 10.0462L7.33165 8.23819V5.17552C7.33165 4.80685 7.63032 4.50752 7.99965 4.50752C8.36832 4.50752 8.66698 4.80685 8.66698 5.17552V8.51485Z" />
</svg>
