<svg viewBox="0 0 16 16" xmlns="http://www.w3.org/2000/svg">
<path d="M14.8531 2.50796C13.193 1.78455 11.3402 1.63056 9.58347 2.06998C9.25038 2.63763 8.78769 3.15552 8.6385 3.79431C8.62906 3.83697 8.60835 3.87632 8.57853 3.90825C8.54872 3.94018 8.51088 3.96353 8.46896 3.97586C8.42705 3.98819 8.38259 3.98905 8.34023 3.97835C8.29787 3.96764 8.25916 3.94577 8.22813 3.91502C8.19955 3.88629 8.17848 3.85098 8.16675 3.81219C8.15502 3.7734 8.15301 3.73233 8.16088 3.69258C8.25851 3.167 8.59042 2.73821 8.86442 2.28552C8.3263 2.47685 7.80777 2.71937 7.31597 3.00973C7.21424 3.21494 7.06595 3.53223 6.93317 3.83743C6.61379 4.55015 6.46302 5.0345 6.55726 5.76526C6.56178 5.79699 6.55995 5.82931 6.55188 5.86033C6.54382 5.89135 6.52966 5.92046 6.51025 5.94596C6.49084 5.97147 6.46656 5.99287 6.43881 6.00892C6.41106 6.02496 6.3804 6.03533 6.34861 6.03943C5.81909 6.10571 6.09601 4.69888 6.18476 4.40647C6.2417 4.22541 6.38655 3.87019 6.54518 3.51499C5.78386 4.10638 5.20579 4.57539 4.91734 5.0496L4.52251 7.15508C4.41937 6.97089 4.367 6.76262 4.37076 6.55155C4.37139 6.50454 4.35838 6.45835 4.3333 6.41857C4.30822 6.3788 4.27216 6.34715 4.22947 6.32745C4.18678 6.30774 4.13929 6.30083 4.09276 6.30756C4.04622 6.31428 4.00263 6.33434 3.96726 6.36532C3.59167 6.69143 3.27597 7.08066 3.03441 7.51547C2.60895 8.3015 2.42933 9.19717 2.51882 10.0865C2.52409 10.4342 2.57519 10.7797 2.67079 11.1141C2.63584 11.1317 2.60578 11.1576 2.58326 11.1896C2.01296 12.0358 1.49328 12.915 1.02697 13.8226C1.01233 13.8511 1.00344 13.8822 1.00082 13.9141C0.998196 13.946 1.00188 13.9781 1.01167 14.0086C1.02146 14.0391 1.03716 14.0674 1.05787 14.0918C1.07859 14.1162 1.10391 14.1363 1.13239 14.151C1.16087 14.1656 1.19196 14.1745 1.22387 14.1771C1.25579 14.1797 1.28791 14.1761 1.3184 14.1663C1.34889 14.1565 1.37716 14.1408 1.40158 14.1201C1.426 14.0994 1.44611 14.074 1.46075 14.0455C3.50789 10.0918 6.53866 6.73178 10.2611 4.28919C10.3149 4.25436 10.3802 4.24209 10.4429 4.25502C10.5056 4.26796 10.5608 4.30507 10.5963 4.35833C10.6319 4.41159 10.6451 4.47671 10.633 4.53961C10.621 4.60251 10.5846 4.65813 10.5319 4.69444C7.63558 6.60779 5.15146 9.08135 3.22579 11.9694C4.27136 12.3609 5.42367 12.3585 6.46757 11.9625C6.51163 11.9449 6.54964 11.9149 6.577 11.8761C6.60435 11.8373 6.61988 11.7914 6.62171 11.744C6.62353 11.6965 6.61158 11.6496 6.58728 11.6088C6.56299 11.5681 6.5274 11.5352 6.48482 11.5142C6.31251 11.4339 6.15824 11.3195 6.03132 11.178C6.7704 11.3602 7.67599 11.3201 8.32299 10.7555C8.96444 10.2416 10.1422 9.27085 10.8319 8.57766C10.8657 8.54188 10.888 8.49676 10.8959 8.44816C10.9038 8.39955 10.8968 8.34971 10.876 8.30509C10.8552 8.26047 10.8214 8.22314 10.7791 8.19795C10.7368 8.17276 10.6879 8.16087 10.6388 8.16381C10.349 8.18393 10.0585 8.13856 9.78868 8.03104C9.6764 7.98506 9.56848 7.92909 9.46622 7.86378C10.0525 7.94188 10.6488 7.88466 11.2095 7.69651C11.8691 7.45831 12.3186 6.94894 12.7373 6.39633C12.4991 6.46313 12.2547 6.50532 12.0079 6.52224C11.5314 6.53953 11.0543 6.51588 10.5819 6.45154C10.518 6.44224 10.4603 6.40804 10.4215 6.35639C10.3827 6.30474 10.3659 6.23984 10.3748 6.17586C10.3837 6.11188 10.4175 6.05401 10.4689 6.01488C10.5203 5.97574 10.5851 5.95853 10.6491 5.96699C11.169 6.04597 11.6966 6.06045 12.22 6.01011C12.5222 5.95041 12.8785 5.85777 13.2374 5.76526C13.7458 5.09446 14.1075 4.75973 14.5789 3.83744C14.7452 3.50501 14.8825 3.15886 14.9893 2.80283C15.0069 2.74554 15.0028 2.68374 14.9777 2.62932C14.9525 2.57489 14.9081 2.53168 14.8531 2.50796Z" />
</svg>
