<svg viewBox="0 0 28 28" xmlns="http://www.w3.org/2000/svg">
<path d="M16.697 14.0059L6.22226 3.53073C5.93384 3.24299 5.77517 2.85828 5.77517 2.44807C5.77517 2.03763 5.93384 1.65314 6.22226 1.36494L7.14011 0.447545C7.42808 0.158894 7.81303 0 8.22324 0C8.63345 0 9.01794 0.158894 9.30613 0.447545L21.778 12.9192C22.0673 13.2083 22.2257 13.5946 22.2246 14.0052C22.2257 14.4177 22.0675 14.8036 21.778 15.0929L9.31774 27.5525C9.02955 27.8411 8.64506 28 8.23462 28C7.82441 28 7.43992 27.8411 7.1515 27.5525L6.23387 26.6351C5.63677 26.038 5.63677 25.0659 6.23387 24.469L16.697 14.0059Z" />
</svg>
