<svg viewBox="0 0 17 17" xmlns="http://www.w3.org/2000/svg">
<path d="M8.5 0.5C6.91775 0.5 5.37104 0.969192 4.05544 1.84824C2.73985 2.72729 1.71447 3.97672 1.10897 5.43853C0.503466 6.90034 0.34504 8.50887 0.653721 10.0607C0.962403 11.6126 1.72433 13.038 2.84315 14.1569C3.96197 15.2757 5.38743 16.0376 6.93928 16.3463C8.49113 16.655 10.0997 16.4965 11.5615 15.891C13.0233 15.2855 14.2727 14.2602 15.1518 12.9446C16.0308 11.629 16.5 10.0823 16.5 8.5C16.5 6.37827 15.6571 4.34344 14.1569 2.84315C12.6566 1.34285 10.6217 0.5 8.5 0.5ZM13.0467 6.57L8.02667 12.2633C7.94566 12.3546 7.84742 12.429 7.73759 12.4822C7.62776 12.5354 7.50851 12.5663 7.38667 12.5733H7.32667C7.09929 12.5747 6.8795 12.4916 6.71 12.34L4.02334 9.95667C3.83857 9.79268 3.72652 9.562 3.71182 9.31539C3.69713 9.06878 3.78101 8.82644 3.945 8.64167C4.109 8.4569 4.33967 8.34485 4.58628 8.33016C4.83289 8.31546 5.07524 8.39934 5.26 8.56333L7.26 10.3267L11.6633 5.32667C11.8269 5.14146 12.0573 5.0288 12.3039 5.01349C12.5505 4.99817 12.7931 5.08145 12.9783 5.245C13.1635 5.40855 13.2762 5.63898 13.2915 5.88559C13.3068 6.1322 13.2236 6.37479 13.06 6.56L13.0467 6.57Z" />
</svg>
