<svg viewBox="0 0 16 16" xmlns="http://www.w3.org/2000/svg">
<path d="M14.779 8.9854L13.1466 9.3744C12.9413 9.42668 12.7448 9.50924 12.5638 9.61937L11.2361 8.80418C11.3795 8.2774 11.3795 7.72184 11.2361 7.19505L12.5638 6.37987C12.7448 6.48999 12.9413 6.57255 13.1466 6.62484C13.1466 6.62484 14.9336 7.04105 15.0106 7.04105C15.5605 7.0358 16.0021 6.58574 15.9968 6.0358C15.9925 5.58159 15.6813 5.18787 15.2403 5.07874L13.6053 4.68774C13.5682 4.67871 13.5364 4.65465 13.5177 4.62137C13.4976 4.58934 13.4914 4.55052 13.5004 4.51384L13.8894 2.8808C14.0485 2.3544 13.7508 1.79865 13.2244 1.63952C12.698 1.4804 12.1423 1.77812 11.9831 2.30452C11.9713 2.34355 11.9619 2.38324 11.955 2.42343L11.566 4.05646C11.5204 4.26112 11.5054 4.4714 11.5215 4.68046L10.1939 5.49896C9.8526 5.20505 9.45476 4.98409 9.02489 4.84974V3.2864C9.21329 3.19093 9.38607 3.06737 9.53736 2.91996L10.7249 1.73302C11.1138 1.34402 11.1136 0.713492 10.7246 0.324711C10.3356 -0.0641015 9.70507 -0.0639453 9.31629 0.325055L8.12936 1.51262C8.07442 1.56762 7.98532 1.56768 7.93032 1.51274L7.9302 1.51262L6.74195 0.325023C6.35295 -0.0639765 5.72229 -0.0639765 5.33329 0.325023C4.94429 0.714023 4.94429 1.34468 5.33329 1.73368L6.52089 2.92062C6.6722 3.06777 6.84501 3.19112 7.03336 3.2864V4.84974C6.60442 4.9853 6.20773 5.20715 5.86767 5.50162L4.53667 4.68046C4.55329 4.46987 4.53829 4.25796 4.4922 4.0518L4.1032 2.42343C3.98426 1.88652 3.45258 1.54768 2.91567 1.66662C2.37876 1.78555 2.03992 2.31724 2.15886 2.85415C2.16114 2.8644 2.16358 2.87462 2.16617 2.88477L2.55517 4.5178C2.56423 4.55452 2.55801 4.59334 2.53792 4.62534C2.51917 4.65865 2.48742 4.68268 2.45029 4.69171L0.817919 5.07871C0.282982 5.20643 -0.0471431 5.74359 0.0805756 6.27849C0.187451 6.72621 0.587294 7.04234 1.04758 7.04302C1.12458 7.04302 2.91161 6.6268 2.91161 6.6268C3.11695 6.57452 3.31339 6.49196 3.49445 6.38184L4.82211 7.19702C4.67873 7.7238 4.67873 8.27937 4.82211 8.80615L3.49445 9.62134C3.31339 9.51121 3.11695 9.42865 2.91161 9.37637L1.27923 8.98737C0.753638 8.82555 0.196388 9.12049 0.0345756 9.64609C-0.127237 10.1717 0.167701 10.7289 0.693294 10.8907C0.734138 10.9033 0.775763 10.9132 0.817857 10.9205L2.45023 11.3095C2.48736 11.3185 2.51911 11.3426 2.53786 11.3758C2.55795 11.4079 2.56417 11.4467 2.55511 11.4834L2.16614 13.1164C2.03783 13.6513 2.36742 14.189 2.90233 14.3173C3.43723 14.4456 3.97489 14.116 4.1032 13.5811L4.4922 11.9481C4.53836 11.7417 4.55336 11.5296 4.53667 11.3188L5.86767 10.5003C6.20773 10.7947 6.60442 11.0166 7.03336 11.1521V12.7128C6.84507 12.8088 6.67233 12.9326 6.52089 13.0799L5.33329 14.2655C4.94429 14.6545 4.94429 15.2852 5.33329 15.6742C5.72229 16.0632 6.35295 16.0632 6.74195 15.6742L7.92889 14.4866C7.98382 14.4316 8.07292 14.4315 8.12792 14.4865L8.12804 14.4866L9.31498 15.6742C9.70398 16.0632 10.3346 16.0632 10.7236 15.6742C11.1126 15.2852 11.1126 14.6545 10.7236 14.2655L9.53604 13.0786C9.38492 12.9318 9.21261 12.8085 9.02489 12.7128V11.1495C9.45382 11.0139 9.85051 10.7921 10.1906 10.4976L11.5182 11.3161C11.5016 11.5267 11.5166 11.7386 11.5627 11.9447L11.9517 13.5778C12.08 14.1127 12.6177 14.4423 13.1526 14.314C13.6875 14.1856 14.0171 13.648 13.8888 13.1131L13.4998 11.4801C13.4907 11.4433 13.4969 11.4045 13.517 11.3725C13.5358 11.3392 13.5675 11.3152 13.6046 11.3061L15.237 10.9171C15.7719 10.7888 16.1015 10.2512 15.9732 9.71627C15.8449 9.18137 15.3072 8.85177 14.7723 8.98009L14.779 8.9854ZM8.02911 9.32727C7.29586 9.32727 6.70145 8.73287 6.70145 7.99962C6.70145 7.26637 7.29586 6.67196 8.02911 6.67196C8.76236 6.67196 9.35676 7.26637 9.35676 7.99962C9.35676 8.73287 8.76236 9.32727 8.02911 9.32727Z" />
</svg>
